<mxfile host="app.diagrams.net" agent="Mozilla/5.0 (Windows NT 10.0; Win64; x64) AppleWebKit/537.36 (KHTML, like Gecko) Chrome/138.0.0.0 Safari/537.36" version="28.1.1">
  <diagram name="Page-1" id="ort8rjFYhLfJ45qH1qQt">
    <mxGraphModel dx="868" dy="468" grid="1" gridSize="10" guides="1" tooltips="1" connect="1" arrows="1" fold="1" page="1" pageScale="1" pageWidth="850" pageHeight="1100" math="0" shadow="0">
      <root>
        <mxCell id="0" />
        <mxCell id="1" parent="0" />
        <mxCell id="_VxEBxm_vpcQ5d1JWJhJ-8" value="" style="edgeStyle=none;shape=connector;rounded=0;orthogonalLoop=1;jettySize=auto;html=1;strokeColor=default;align=center;verticalAlign=middle;fontFamily=Helvetica;fontSize=11;fontColor=default;labelBackgroundColor=default;startArrow=classic;endArrow=classic;" edge="1" parent="1" source="_VxEBxm_vpcQ5d1JWJhJ-6">
          <mxGeometry relative="1" as="geometry">
            <mxPoint x="430" y="380" as="targetPoint" />
          </mxGeometry>
        </mxCell>
        <mxCell id="_VxEBxm_vpcQ5d1JWJhJ-10" value="" style="edgeStyle=none;shape=connector;rounded=0;orthogonalLoop=1;jettySize=auto;html=1;strokeColor=default;align=center;verticalAlign=middle;fontFamily=Helvetica;fontSize=11;fontColor=default;labelBackgroundColor=default;startArrow=classic;endArrow=classic;" edge="1" parent="1" source="_VxEBxm_vpcQ5d1JWJhJ-6" target="_VxEBxm_vpcQ5d1JWJhJ-9">
          <mxGeometry relative="1" as="geometry" />
        </mxCell>
        <mxCell id="_VxEBxm_vpcQ5d1JWJhJ-12" value="" style="edgeStyle=none;shape=connector;rounded=0;orthogonalLoop=1;jettySize=auto;html=1;strokeColor=default;align=center;verticalAlign=middle;fontFamily=Helvetica;fontSize=11;fontColor=default;labelBackgroundColor=default;startArrow=classic;endArrow=classic;" edge="1" parent="1" target="_VxEBxm_vpcQ5d1JWJhJ-11">
          <mxGeometry relative="1" as="geometry">
            <mxPoint x="390" y="300" as="sourcePoint" />
          </mxGeometry>
        </mxCell>
        <mxCell id="_VxEBxm_vpcQ5d1JWJhJ-40" value="" style="edgeStyle=none;shape=connector;rounded=0;orthogonalLoop=1;jettySize=auto;html=1;strokeColor=default;align=center;verticalAlign=middle;fontFamily=Helvetica;fontSize=11;fontColor=default;labelBackgroundColor=default;endArrow=classic;" edge="1" parent="1">
          <mxGeometry relative="1" as="geometry">
            <mxPoint x="443" y="300" as="sourcePoint" />
            <mxPoint x="540" y="270" as="targetPoint" />
            <Array as="points">
              <mxPoint x="443" y="270" />
            </Array>
          </mxGeometry>
        </mxCell>
        <mxCell id="_VxEBxm_vpcQ5d1JWJhJ-6" value="E- Pharmacy HUB" style="whiteSpace=wrap;html=1;fontFamily=Helvetica;fontSize=11;fontColor=default;labelBackgroundColor=default;" vertex="1" parent="1">
          <mxGeometry x="370" y="300" width="120" height="60" as="geometry" />
        </mxCell>
        <mxCell id="_VxEBxm_vpcQ5d1JWJhJ-7" value="&lt;font style=&quot;font-size: 16px;&quot;&gt;PCN&lt;/font&gt;&lt;div&gt;&lt;font style=&quot;font-size: 16px;&quot;&gt;Regulatory Platform&lt;/font&gt;&lt;/div&gt;" style="whiteSpace=wrap;html=1;fontSize=11;labelBackgroundColor=default;" vertex="1" parent="1">
          <mxGeometry x="320" y="380" width="220" height="60" as="geometry" />
        </mxCell>
        <mxCell id="_VxEBxm_vpcQ5d1JWJhJ-9" value="PCN&lt;div&gt;Multi-Tenant&lt;/div&gt;&lt;div&gt;E-Pharmacy App&lt;/div&gt;" style="rounded=1;whiteSpace=wrap;html=1;fontSize=11;labelBackgroundColor=default;arcSize=0;" vertex="1" parent="1">
          <mxGeometry x="170" y="300" width="120" height="60" as="geometry" />
        </mxCell>
        <mxCell id="_VxEBxm_vpcQ5d1JWJhJ-14" value="" style="edgeStyle=none;shape=connector;rounded=0;orthogonalLoop=1;jettySize=auto;html=1;strokeColor=default;align=center;verticalAlign=middle;fontFamily=Helvetica;fontSize=11;fontColor=default;labelBackgroundColor=default;startArrow=classic;endArrow=classic;" edge="1" parent="1" source="_VxEBxm_vpcQ5d1JWJhJ-11" target="_VxEBxm_vpcQ5d1JWJhJ-13">
          <mxGeometry relative="1" as="geometry" />
        </mxCell>
        <mxCell id="_VxEBxm_vpcQ5d1JWJhJ-11" value="Client App" style="ellipse;whiteSpace=wrap;html=1;fontSize=11;labelBackgroundColor=default;" vertex="1" parent="1">
          <mxGeometry x="350" y="150" width="80" height="80" as="geometry" />
        </mxCell>
        <mxCell id="_VxEBxm_vpcQ5d1JWJhJ-13" value="NIN" style="rounded=1;whiteSpace=wrap;html=1;fontSize=11;labelBackgroundColor=default;" vertex="1" parent="1">
          <mxGeometry x="230" y="160" width="60" height="60" as="geometry" />
        </mxCell>
        <mxCell id="_VxEBxm_vpcQ5d1JWJhJ-15" value="E-Pharmacy App" style="whiteSpace=wrap;html=1;fontSize=11;labelBackgroundColor=default;" vertex="1" parent="1">
          <mxGeometry x="520" y="300" width="120" height="60" as="geometry" />
        </mxCell>
        <mxCell id="_VxEBxm_vpcQ5d1JWJhJ-17" value="Aggregator" style="whiteSpace=wrap;html=1;fontSize=11;labelBackgroundColor=default;" vertex="1" parent="1">
          <mxGeometry x="680" y="300" width="120" height="60" as="geometry" />
        </mxCell>
        <mxCell id="_VxEBxm_vpcQ5d1JWJhJ-19" value="" style="edgeStyle=none;shape=connector;rounded=0;orthogonalLoop=1;jettySize=auto;html=1;strokeColor=default;align=center;verticalAlign=middle;fontFamily=Helvetica;fontSize=11;fontColor=default;labelBackgroundColor=default;startArrow=classic;endArrow=classic;" edge="1" parent="1" source="_VxEBxm_vpcQ5d1JWJhJ-6">
          <mxGeometry relative="1" as="geometry">
            <mxPoint x="490" y="330" as="sourcePoint" />
            <mxPoint x="520" y="330" as="targetPoint" />
          </mxGeometry>
        </mxCell>
        <mxCell id="_VxEBxm_vpcQ5d1JWJhJ-20" value="" style="edgeStyle=none;shape=connector;rounded=0;orthogonalLoop=1;jettySize=auto;html=1;strokeColor=default;align=center;verticalAlign=middle;fontFamily=Helvetica;fontSize=11;fontColor=default;labelBackgroundColor=default;startArrow=classic;endArrow=classic;" edge="1" parent="1" source="_VxEBxm_vpcQ5d1JWJhJ-15">
          <mxGeometry relative="1" as="geometry">
            <mxPoint x="690" y="330" as="sourcePoint" />
            <mxPoint x="680" y="330" as="targetPoint" />
          </mxGeometry>
        </mxCell>
        <mxCell id="_VxEBxm_vpcQ5d1JWJhJ-21" value="Pharmacy Reg&lt;div&gt;Renewal&amp;nbsp;&lt;/div&gt;&lt;div&gt;Portal&lt;/div&gt;" style="whiteSpace=wrap;html=1;fontSize=11;labelBackgroundColor=default;" vertex="1" parent="1">
          <mxGeometry x="410" y="490" width="80" height="60" as="geometry" />
        </mxCell>
        <mxCell id="_VxEBxm_vpcQ5d1JWJhJ-23" value="E-Pharmacy Reg&lt;div&gt;Renewal&amp;nbsp;&lt;/div&gt;&lt;div&gt;Portal&lt;/div&gt;" style="whiteSpace=wrap;html=1;fontSize=11;labelBackgroundColor=default;" vertex="1" parent="1">
          <mxGeometry x="160" y="490" width="140" height="60" as="geometry" />
        </mxCell>
        <mxCell id="_VxEBxm_vpcQ5d1JWJhJ-27" value="Pharmacist&lt;div&gt;&amp;nbsp;License&lt;/div&gt;&lt;div&gt;Portal&lt;/div&gt;" style="whiteSpace=wrap;html=1;fontSize=11;labelBackgroundColor=default;align=center;" vertex="1" parent="1">
          <mxGeometry x="320" y="490" width="70" height="60" as="geometry" />
        </mxCell>
        <mxCell id="_VxEBxm_vpcQ5d1JWJhJ-30" value="PCN&lt;div&gt;Pay Portal&lt;/div&gt;" style="whiteSpace=wrap;html=1;fontSize=11;labelBackgroundColor=default;align=center;" vertex="1" parent="1">
          <mxGeometry x="510" y="490" width="70" height="60" as="geometry" />
        </mxCell>
        <mxCell id="_VxEBxm_vpcQ5d1JWJhJ-31" value="NHIA" style="whiteSpace=wrap;html=1;fontSize=11;labelBackgroundColor=default;" vertex="1" parent="1">
          <mxGeometry x="600" y="490" width="70" height="60" as="geometry" />
        </mxCell>
        <mxCell id="_VxEBxm_vpcQ5d1JWJhJ-33" value="" style="strokeWidth=2;html=1;shape=mxgraph.flowchart.annotation_2;align=left;labelPosition=right;pointerEvents=1;fontFamily=Helvetica;fontSize=11;fontColor=default;labelBackgroundColor=default;rotation=90;" vertex="1" parent="1">
          <mxGeometry x="400" y="258.13" width="50" height="414.25" as="geometry" />
        </mxCell>
        <mxCell id="_VxEBxm_vpcQ5d1JWJhJ-37" value="" style="endArrow=classic;html=1;rounded=0;strokeColor=default;align=center;verticalAlign=middle;fontFamily=Helvetica;fontSize=11;fontColor=default;labelBackgroundColor=default;entryX=1.004;entryY=0.67;entryDx=0;entryDy=0;entryPerimeter=0;" edge="1" parent="1" target="_VxEBxm_vpcQ5d1JWJhJ-33">
          <mxGeometry width="50" height="50" relative="1" as="geometry">
            <mxPoint x="354.58" y="465" as="sourcePoint" />
            <mxPoint x="354.58" y="505" as="targetPoint" />
          </mxGeometry>
        </mxCell>
        <mxCell id="_VxEBxm_vpcQ5d1JWJhJ-38" value="" style="endArrow=classic;html=1;rounded=0;strokeColor=default;align=center;verticalAlign=middle;fontFamily=Helvetica;fontSize=11;fontColor=default;labelBackgroundColor=default;entryX=1.004;entryY=0.67;entryDx=0;entryDy=0;entryPerimeter=0;" edge="1" parent="1">
          <mxGeometry width="50" height="50" relative="1" as="geometry">
            <mxPoint x="449.52" y="465" as="sourcePoint" />
            <mxPoint x="449.94" y="490" as="targetPoint" />
          </mxGeometry>
        </mxCell>
        <mxCell id="_VxEBxm_vpcQ5d1JWJhJ-39" value="" style="endArrow=classic;html=1;rounded=0;strokeColor=default;align=center;verticalAlign=middle;fontFamily=Helvetica;fontSize=11;fontColor=default;labelBackgroundColor=default;entryX=1.004;entryY=0.67;entryDx=0;entryDy=0;entryPerimeter=0;" edge="1" parent="1">
          <mxGeometry width="50" height="50" relative="1" as="geometry">
            <mxPoint x="544.79" y="465" as="sourcePoint" />
            <mxPoint x="545.21" y="490" as="targetPoint" />
          </mxGeometry>
        </mxCell>
        <mxCell id="_VxEBxm_vpcQ5d1JWJhJ-41" value="MDCN" style="rounded=1;whiteSpace=wrap;html=1;fontSize=11;labelBackgroundColor=default;" vertex="1" parent="1">
          <mxGeometry x="540" y="230" width="60" height="60" as="geometry" />
        </mxCell>
        <mxCell id="_VxEBxm_vpcQ5d1JWJhJ-42" value="" style="edgeStyle=none;shape=connector;rounded=0;orthogonalLoop=1;jettySize=auto;html=1;strokeColor=default;align=center;verticalAlign=middle;fontFamily=Helvetica;fontSize=11;fontColor=default;labelBackgroundColor=default;endArrow=classic;exitX=0.423;exitY=0.001;exitDx=0;exitDy=0;exitPerimeter=0;" edge="1" parent="1" source="_VxEBxm_vpcQ5d1JWJhJ-6">
          <mxGeometry relative="1" as="geometry">
            <mxPoint x="413" y="300" as="sourcePoint" />
            <mxPoint x="520" y="190" as="targetPoint" />
            <Array as="points">
              <mxPoint x="420" y="250" />
            </Array>
          </mxGeometry>
        </mxCell>
        <mxCell id="_VxEBxm_vpcQ5d1JWJhJ-43" value="Hospital EMR&amp;nbsp;&lt;div&gt;Pharmacy&lt;/div&gt;" style="whiteSpace=wrap;html=1;fontSize=11;labelBackgroundColor=default;" vertex="1" parent="1">
          <mxGeometry x="520" y="160" width="120" height="60" as="geometry" />
        </mxCell>
      </root>
    </mxGraphModel>
  </diagram>
</mxfile>
